<svg width="16" height="18" viewBox="0 0 16 18" fill="none" xmlns="http://www.w3.org/2000/svg">
<path d="M14.4802 8.14596C14.0896 7.26689 13.5218 6.47789 12.8123 5.82831L12.2269 5.29114C12.207 5.2734 12.1831 5.26082 12.1572 5.25448C12.1313 5.24815 12.1043 5.24827 12.0785 5.25482C12.0526 5.26138 12.0288 5.27417 12.0091 5.29208C11.9894 5.30999 11.9744 5.33246 11.9653 5.35753L11.7038 6.10795C11.5408 6.57873 11.2411 7.05956 10.8166 7.53234C10.7884 7.56252 10.7562 7.57057 10.7341 7.57258C10.712 7.57459 10.6778 7.57057 10.6476 7.5424C10.6194 7.51826 10.6053 7.48205 10.6073 7.44583C10.6818 6.2347 10.3197 4.86865 9.52698 3.3819C8.87112 2.14662 7.95975 1.18294 6.82104 0.510986L5.99015 0.0221065C5.88151 -0.0422727 5.74269 0.0422249 5.74873 0.168971L5.79299 1.13466C5.82316 1.79455 5.74671 2.37798 5.56565 2.86284C5.34434 3.45633 5.02647 4.00758 4.62008 4.5025C4.33726 4.84645 4.01671 5.15755 3.66445 5.42996C2.81606 6.08213 2.12622 6.91779 1.64656 7.87436C1.16809 8.83927 0.918858 9.90162 0.918274 10.9786C0.918274 11.9282 1.10538 12.8477 1.47556 13.7148C1.83299 14.5496 2.34882 15.3073 2.9945 15.9459C3.64634 16.5897 4.4028 17.0967 5.24576 17.4488C6.11891 17.8149 7.04436 18 7.99999 18C8.95562 18 9.88107 17.8149 10.7542 17.4508C11.5951 17.1008 12.3598 16.5903 13.0055 15.9479C13.6573 15.3041 14.1683 14.5517 14.5244 13.7168C14.894 12.852 15.0837 11.9211 15.0817 10.9807C15.0817 9.99887 14.8805 9.04526 14.4802 8.14596ZM12.0438 14.9722C10.9634 16.0425 9.52899 16.6299 7.99999 16.6299C6.47098 16.6299 5.03653 16.0425 3.95617 14.9722C2.87983 13.9039 2.28633 12.4875 2.28633 10.9807C2.28633 10.1055 2.48349 9.26656 2.87178 8.48596C3.25001 7.72347 3.81333 7.04145 4.49736 6.51636C4.9336 6.18278 5.32928 5.79926 5.6763 5.37363C6.17926 4.76001 6.57359 4.07598 6.8472 3.34166C6.95943 3.03875 7.04098 2.72534 7.09063 2.40615C7.57549 2.85278 7.98188 3.39196 8.32188 4.02368C8.99384 5.28309 9.30367 6.4037 9.24331 7.35731C9.22889 7.58191 9.26557 7.80685 9.3506 8.01523C9.43562 8.22361 9.56678 8.41 9.7342 8.5604C9.87929 8.69146 10.049 8.79239 10.2334 8.85732C10.4178 8.92225 10.6133 8.94989 10.8085 8.93863C11.2049 8.91851 11.569 8.74348 11.8346 8.44774C12.1021 8.14797 12.3335 7.84217 12.5266 7.53033C12.8083 7.89045 13.0437 8.28276 13.2308 8.70525C13.5507 9.42549 13.7136 10.192 13.7136 10.9807C13.7136 12.4875 13.1201 13.9059 12.0438 14.9722Z" fill="#0B76E0"/>
</svg>
