<svg width="20" height="20" viewBox="0 0 20 20" fill="none" xmlns="http://www.w3.org/2000/svg">
<path fill-rule="evenodd" clip-rule="evenodd" d="M4.375 1.66663C4.375 1.32145 4.65482 1.04163 5 1.04163H15C15.3452 1.04163 15.625 1.32145 15.625 1.66663V7.3529C15.625 10.5235 13.1236 13.125 10 13.125C6.87644 13.125 4.375 10.5235 4.375 7.3529V1.66663ZM5.625 2.29163V7.3529C5.625 9.86757 7.60071 11.875 10 11.875C12.3993 11.875 14.375 9.86757 14.375 7.3529V2.29163H5.625Z" fill="white"/>
<path fill-rule="evenodd" clip-rule="evenodd" d="M1.04166 4.58325C1.04166 4.23807 1.32148 3.95825 1.66666 3.95825H4.99999C5.34517 3.95825 5.62499 4.23807 5.62499 4.58325V8.74992C5.62499 9.0951 5.34517 9.37492 4.99999 9.37492C2.92783 9.37492 1.04166 7.64264 1.04166 4.58325ZM2.3241 5.20825C2.50522 6.88905 3.41754 7.77613 4.37499 8.03968V5.20825H2.3241Z" fill="white"/>
<path fill-rule="evenodd" clip-rule="evenodd" d="M14.375 4.58325C14.375 4.23807 14.6548 3.95825 15 3.95825H18.3333C18.6785 3.95825 18.9583 4.23807 18.9583 4.58325C18.9583 7.64264 17.0722 9.37492 15 9.37492C14.6548 9.37492 14.375 9.0951 14.375 8.74992V4.58325ZM15.625 5.20825V8.03968C16.5824 7.77613 17.4948 6.88905 17.6759 5.20825H15.625Z" fill="white"/>
<path fill-rule="evenodd" clip-rule="evenodd" d="M10 12.7083C10.3452 12.7083 10.625 12.9881 10.625 13.3333V14.9999C10.625 15.3451 10.3452 15.6249 10 15.6249C9.65482 15.6249 9.375 15.3451 9.375 14.9999V13.3333C9.375 12.9881 9.65482 12.7083 10 12.7083Z" fill="white"/>
<path fill-rule="evenodd" clip-rule="evenodd" d="M7.25514 14.6726C7.36887 14.4877 7.57042 14.375 7.78752 14.375H12.101C12.3111 14.375 12.5071 14.4805 12.6228 14.6559L14.2717 17.1559C14.3983 17.3478 14.4093 17.5938 14.3003 17.7963C14.1913 17.9987 13.9799 18.125 13.75 18.125H6.25C6.0236 18.125 5.81491 18.0026 5.70445 17.805C5.59398 17.6073 5.59902 17.3654 5.71762 17.1726L7.25514 14.6726ZM8.13687 15.625L7.36812 16.875H12.5891L11.7646 15.625H8.13687Z" fill="white"/>
</svg>
